<svg width="320" height="348" viewBox="0 0 320 348" fill="none" xmlns="http://www.w3.org/2000/svg">
<path d="M204.361 69.5111L200.538 63.3984C200.538 63.3984 193.553 74.5158 192.012 76.972C186.949 84.9868 182.165 92.5769 177.562 100.352C175.301 104.156 178.283 109.179 178.623 109.733C193.573 133.851 251.973 224.822 265.443 246.595C267.864 250.51 271.026 252.246 275.71 252.246L320 252.172C320 252.172 222.993 99.2621 204.381 69.5111H204.361Z" fill="white"/>
<path d="M183.166 36.2699C178.363 28.3474 160.09 0 160.09 0C160.09 0 142.398 27.9596 138.055 34.5894C134.993 39.2616 136.514 42.8074 138.175 45.3743C141.778 50.9515 160.35 79.9637 160.35 79.9637C160.35 79.9637 178.083 51.3762 182.786 43.6938C183.967 41.7732 184.587 38.6153 183.146 36.2515L183.166 36.2699Z" fill="white"/>
<path d="M235.182 246.687C234.841 246.004 234.501 245.339 234.281 244.988C234.281 244.988 198.837 188.774 189.31 173.815C187.609 171.137 183.946 168.958 180.684 169.568C176.321 170.38 145.62 187.37 145.62 187.37L160.69 211.673H76.3725L118.982 144.932C119.062 145.043 119.122 145.172 119.202 145.283C122.444 150.417 125.506 155.274 128.408 160.149C129.729 162.384 131.41 163.88 133.572 164.692C135.733 165.505 138.255 165.302 140.356 164.304L172.459 147.259L119.522 63.7495L0 252.265H230.979C233.921 252.265 236.182 249.679 235.342 247.094C235.302 246.946 235.242 246.798 235.182 246.687Z" fill="white"/>
<path d="M320 320.605V346.665H308.625V322.218C308.625 319.784 307.889 317.832 306.418 316.361C305.003 314.833 303.136 314.069 300.816 314.069C298.495 314.069 296.571 314.833 295.043 316.361C293.572 317.832 292.836 319.784 292.836 322.218V346.665H281.376V283H292.836V308.211C295.836 305.212 299.684 303.712 304.381 303.712C309.134 303.712 312.926 305.269 315.756 308.381C318.585 311.437 320 315.512 320 320.605Z" fill="white"/>
<path d="M234.094 325.613C234.094 319.501 236.273 314.323 240.631 310.079C244.988 305.835 250.308 303.712 256.589 303.712C264.852 303.712 270.935 307.164 274.84 314.069L266.861 320.265C264.031 316.191 260.664 314.153 256.759 314.153C253.533 314.153 250.874 315.257 248.78 317.464C246.742 319.615 245.724 322.331 245.724 325.613C245.724 328.952 246.742 331.725 248.78 333.932C250.874 336.083 253.533 337.158 256.759 337.158C260.664 337.158 264.031 335.149 266.861 331.131L274.84 337.243C272.972 340.525 270.454 343.1 267.285 344.967C264.173 346.778 260.607 347.684 256.589 347.684C250.421 347.797 245.101 345.675 240.631 341.317C236.16 336.903 233.981 331.668 234.094 325.613Z" fill="white"/>
<path d="M228.697 329.518H199.242C199.921 332.178 201.279 334.243 203.316 335.715C205.41 337.129 207.985 337.837 211.041 337.837C215.172 337.837 219.077 336.422 222.755 333.592L227.509 341.402C222.472 345.59 216.87 347.684 210.701 347.684C204.25 347.797 198.761 345.703 194.233 341.402C189.762 337.045 187.584 331.81 187.697 325.698C187.584 319.643 189.706 314.436 194.063 310.079C198.421 305.721 203.627 303.599 209.683 303.712C215.455 303.712 220.18 305.58 223.859 309.315C227.594 313.05 229.461 317.69 229.461 323.236C229.461 325.274 229.207 327.367 228.697 329.518ZM199.242 321.454H218.341C218.284 318.907 217.379 316.87 215.625 315.342C213.927 313.757 211.805 312.965 209.258 312.965C206.825 312.965 204.703 313.729 202.892 315.257C201.081 316.785 199.864 318.85 199.242 321.454Z" fill="white"/>
<path d="M158.999 346.665V300.996H141.088V290.64H188.454V300.996H170.458V346.665H158.999Z" fill="white"/>
<path d="M130.691 289.621H134.426V346.665H122.967V316.785L108.875 334.441H105.14L91.0491 316.785V346.665H79.5894V289.621H83.3244L107.008 319.926L130.691 289.621Z" fill="white"/>
<path d="M18.1658 318.652C18.0526 310.616 20.9671 303.741 26.9092 298.025C32.8513 292.253 39.8969 289.451 48.046 289.621C53.3656 289.621 58.1758 290.866 62.4768 293.356C66.8343 295.789 70.2581 299.185 72.7481 303.542L64.0896 309.654C60.0716 303.373 54.7238 300.232 48.046 300.232C42.8396 300.232 38.5104 301.986 35.0583 305.495C31.6628 309.004 29.9651 313.418 29.9651 318.737C29.9651 324.057 31.6628 328.443 35.0583 331.895C38.5104 335.347 42.8396 337.073 48.046 337.073C54.7238 337.073 60.0716 333.932 64.0896 327.65L72.7481 333.762C70.3147 338.12 66.9192 341.543 62.5617 344.034C58.2041 346.467 53.3373 347.684 47.9611 347.684C39.7554 347.853 32.6815 345.08 26.7394 339.365C20.8539 333.592 17.9961 326.688 18.1658 318.652Z" fill="white"/>
<path d="M0 346.665V290.64H11.4597V346.665H0Z" fill="white"/>
</svg>
