<svg width="230" height="181" viewBox="0 0 230 181" fill="none" xmlns="http://www.w3.org/2000/svg">
<path d="M146.425 49.8051L143.686 45.4253C143.686 45.4253 138.681 53.3909 137.577 55.1508C133.949 60.8934 130.522 66.3317 127.224 71.9024C125.603 74.6281 127.74 78.2272 127.984 78.6242C138.696 95.9051 180.539 161.086 190.19 176.686C191.925 179.491 194.191 180.735 197.547 180.735L229.281 180.682C229.281 180.682 159.775 71.1217 146.439 49.8051H146.425Z" fill="#2D3BFF"/>
<path d="M131.239 25.9875C127.797 20.311 114.705 0 114.705 0C114.705 0 102.029 20.0331 98.9168 24.7834C96.7228 28.1311 97.8126 30.6716 99.0028 32.5108C101.584 36.5069 114.891 57.2942 114.891 57.2942C114.891 57.2942 127.597 36.8112 130.966 31.3067C131.813 29.9306 132.257 27.6679 131.225 25.9743L131.239 25.9875Z" fill="#2D3BFF"/>
<path d="M168.508 176.752C168.265 176.262 168.021 175.786 167.863 175.534C167.863 175.534 142.467 135.256 135.641 124.539C134.422 122.62 131.798 121.059 129.461 121.495C126.335 122.077 104.337 134.251 104.337 134.251L115.135 151.664H54.7211L85.2508 103.844C85.3081 103.923 85.3512 104.016 85.4085 104.095C87.7316 107.774 89.9256 111.254 92.0049 114.747C92.9513 116.348 94.1559 117.42 95.7046 118.002C97.2533 118.584 99.0601 118.439 100.566 117.724L123.567 105.511L85.6379 45.6763L0 180.748H165.497C167.605 180.748 169.225 178.895 168.623 177.043C168.594 176.937 168.551 176.831 168.508 176.752Z" fill="#2D3BFF"/>
</svg>
