<svg width="513" height="104" viewBox="0 0 513 104" fill="none" xmlns="http://www.w3.org/2000/svg">
<path d="M512.694 60.2494V102.002H494.47V62.8335C494.47 58.9347 493.291 55.8066 490.934 53.4492C488.667 51.0012 485.675 49.7771 481.958 49.7771C478.24 49.7771 475.158 51.0012 472.709 53.4492C470.352 55.8066 469.173 58.9347 469.173 62.8335V102.002H450.813V0H469.173V40.3929C473.979 35.5875 480.144 33.1848 487.67 33.1848C495.286 33.1848 501.361 35.6782 505.894 40.6649C510.428 45.5611 512.694 52.0892 512.694 60.2494Z" fill="white"/>
<path d="M375.058 68.2734C375.058 58.4812 378.549 50.185 385.531 43.3848C392.512 36.5847 401.035 33.1846 411.099 33.1846C424.337 33.1846 434.084 38.7154 440.34 49.777L427.556 59.7052C423.022 53.177 417.627 49.913 411.371 49.913C406.203 49.913 401.942 51.681 398.587 55.2171C395.323 58.6625 393.691 63.0146 393.691 68.2734C393.691 73.6228 395.323 78.0656 398.587 81.6017C401.942 85.0471 406.203 86.7698 411.371 86.7698C417.627 86.7698 423.022 83.5511 427.556 77.1136L440.34 86.9058C437.348 92.1646 433.313 96.29 428.236 99.2821C423.249 102.183 417.537 103.634 411.099 103.634C401.216 103.816 392.694 100.415 385.531 93.434C378.368 86.3618 374.877 77.9749 375.058 68.2734Z" fill="white"/>
<path d="M366.412 74.5296H319.219C320.307 78.791 322.483 82.1004 325.747 84.4578C329.102 86.7245 333.227 87.8579 338.123 87.8579C344.742 87.8579 350.998 85.5912 356.892 81.0577L364.508 93.57C356.438 100.28 347.462 103.634 337.579 103.634C327.243 103.816 318.448 100.461 311.194 93.57C304.032 86.5885 300.541 78.2017 300.722 68.4094C300.541 58.7079 303.941 50.3664 310.922 43.3849C317.904 36.4034 326.245 33.0033 335.947 33.1846C345.195 33.1846 352.766 36.1767 358.66 42.1608C364.644 48.145 367.636 55.5798 367.636 64.4653C367.636 67.7294 367.228 71.0842 366.412 74.5296ZM319.219 61.6093H349.819C349.729 57.5292 348.278 54.2651 345.467 51.8171C342.747 49.2783 339.347 48.009 335.267 48.009C331.368 48.009 327.968 49.233 325.067 51.681C322.165 54.1291 320.216 57.4385 319.219 61.6093Z" fill="white"/>
<path d="M254.743 102.002V28.8321H226.046V12.2397H301.936V28.8321H273.103V102.002H254.743Z" fill="white"/>
<path d="M209.39 10.6084H215.374V102.002H197.013V54.1294L174.437 82.418H168.453L145.876 54.1294V102.002H127.516V10.6084H133.5L171.445 59.1615L209.39 10.6084Z" fill="white"/>
<path d="M29.1047 57.1209C28.9234 44.246 33.5928 33.2297 43.113 24.0722C52.6332 14.8239 63.9215 10.3358 76.9778 10.6078C85.5007 10.6078 93.2075 12.6026 100.098 16.592C107.08 20.4907 112.565 25.9309 116.555 32.9124L102.682 42.7046C96.2449 32.6404 87.6767 27.6082 76.9778 27.6082C68.6363 27.6082 61.7001 30.419 56.1693 36.0404C50.7292 41.6619 48.0091 48.7341 48.0091 57.2569C48.0091 65.7798 50.7292 72.8066 56.1693 78.3374C61.7001 83.8682 68.6363 86.6336 76.9778 86.6336C87.6767 86.6336 96.2449 81.6015 102.682 71.5372L116.555 81.3295C112.656 88.311 107.216 93.7964 100.234 97.7858C93.2528 101.685 85.4553 103.634 76.8418 103.634C63.6948 103.906 52.3612 99.4632 42.841 90.3057C33.4115 81.0575 28.8327 69.9959 29.1047 57.1209Z" fill="white"/>
<path d="M0 102.002V12.2397H18.3604V102.002H0Z" fill="white"/>
</svg>
