<svg width="751" height="182" viewBox="0 0 751 182" fill="none" xmlns="http://www.w3.org/2000/svg">
<path d="M146.794 50.5004L144.055 46.1206C144.055 46.1206 139.05 54.0862 137.946 55.8461C134.318 61.5887 130.891 67.027 127.593 72.5977C125.972 75.3235 128.109 78.9225 128.353 79.3195C139.064 96.6004 180.908 161.781 190.559 177.381C192.294 180.186 194.56 181.43 197.915 181.43L229.65 181.377C229.65 181.377 160.144 71.817 146.808 50.5004H146.794Z" fill="#2D3BFF"/>
<path d="M131.608 26.6828C128.166 21.0063 115.074 0.695312 115.074 0.695312C115.074 0.695312 102.397 20.7284 99.2856 25.4787C97.0916 28.8264 98.1814 31.3669 99.3716 33.2061C101.953 37.2022 115.26 57.9895 115.26 57.9895C115.26 57.9895 127.965 37.5065 131.335 32.002C132.181 30.6259 132.626 28.3633 131.593 26.6696L131.608 26.6828Z" fill="#2D3BFF"/>
<path d="M168.877 177.447C168.633 176.957 168.39 176.481 168.232 176.23C168.232 176.23 142.836 135.952 136.01 125.234C134.791 123.315 132.167 121.754 129.83 122.19C126.704 122.773 104.706 134.946 104.706 134.946L115.504 152.359H55.09L85.6197 104.539C85.677 104.619 85.72 104.711 85.7774 104.791C88.1005 108.469 90.2945 111.949 92.3738 115.442C93.3202 117.043 94.5247 118.115 96.0735 118.697C97.6222 119.279 99.429 119.134 100.935 118.419L123.936 106.206L86.0068 46.3716L0.368896 181.443H165.866C167.974 181.443 169.594 179.591 168.992 177.738C168.963 177.632 168.92 177.526 168.877 177.447Z" fill="#2D3BFF"/>
<path d="M750.173 96.7347V138.488H731.949V99.3188C731.949 95.42 730.77 92.292 728.413 89.9346C726.146 87.4865 723.154 86.2625 719.436 86.2625C715.719 86.2625 712.636 87.4865 710.188 89.9346C707.831 92.292 706.652 95.42 706.652 99.3188V138.488H688.292V36.4854H706.652V76.8783C711.458 72.0728 717.623 69.6701 725.148 69.6701C732.765 69.6701 738.839 72.1635 743.373 77.1503C747.906 82.0464 750.173 88.5746 750.173 96.7347Z" fill="#5B5A5E"/>
<path d="M612.537 104.759C612.537 94.9665 616.028 86.6703 623.01 79.8702C629.991 73.07 638.514 69.6699 648.578 69.6699C661.816 69.6699 671.563 75.2007 677.819 86.2623L665.035 96.1905C660.501 89.6624 655.106 86.3983 648.85 86.3983C643.682 86.3983 639.421 88.1663 636.066 91.7024C632.802 95.1478 631.17 99.4999 631.17 104.759C631.17 110.108 632.802 114.551 636.066 118.087C639.421 121.532 643.682 123.255 648.85 123.255C655.106 123.255 660.501 120.036 665.035 113.599L677.819 123.391C674.827 128.65 670.792 132.775 665.715 135.767C660.728 138.669 655.016 140.12 648.578 140.12C638.695 140.301 630.173 136.901 623.01 129.919C615.847 122.847 612.356 114.46 612.537 104.759Z" fill="#5B5A5E"/>
<path d="M603.89 111.015H556.697C557.785 115.276 559.961 118.586 563.225 120.943C566.58 123.21 570.706 124.343 575.602 124.343C582.221 124.343 588.477 122.077 594.37 117.543L601.986 130.055C593.917 136.765 584.941 140.12 575.058 140.12C564.721 140.301 555.927 136.946 548.673 130.055C541.51 123.074 538.02 114.687 538.201 104.895C538.02 95.1932 541.42 86.8517 548.401 79.8702C555.383 72.8887 563.724 69.4886 573.426 69.67C582.674 69.67 590.245 72.662 596.138 78.6462C602.122 84.6303 605.114 92.0652 605.114 100.951C605.114 104.215 604.706 107.57 603.89 111.015ZM556.697 98.0946H587.298C587.207 94.0145 585.757 90.7505 582.946 88.3024C580.226 85.7637 576.826 84.4943 572.746 84.4943C568.847 84.4943 565.447 85.7183 562.545 88.1664C559.644 90.6145 557.695 93.9239 556.697 98.0946Z" fill="#5B5A5E"/>
<path d="M492.222 138.487V65.3175H463.525V48.7251H539.415V65.3175H510.582V138.487H492.222Z" fill="#5B5A5E"/>
<path d="M446.868 47.0938H452.852V138.488H434.492V90.6148L411.915 118.903H405.931L383.355 90.6148V138.488H364.994V47.0938H370.979L408.923 95.6469L446.868 47.0938Z" fill="#5B5A5E"/>
<path d="M266.583 93.6063C266.402 80.7313 271.071 69.7151 280.592 60.5575C290.112 51.3093 301.4 46.8212 314.456 47.0932C322.979 47.0932 330.686 49.0879 337.577 53.0773C344.558 56.9761 350.044 62.4162 354.033 69.3977L340.161 79.1899C333.724 69.1257 325.155 64.0936 314.456 64.0936C306.115 64.0936 299.179 66.9043 293.648 72.5258C288.208 78.1472 285.488 85.2194 285.488 93.7423C285.488 102.265 288.208 109.292 293.648 114.823C299.179 120.354 306.115 123.119 314.456 123.119C325.155 123.119 333.724 118.087 340.161 108.023L354.033 117.815C350.135 124.796 344.694 130.282 337.713 134.271C330.731 138.17 322.934 140.119 314.32 140.119C301.173 140.391 289.84 135.949 280.32 126.791C270.89 117.543 266.311 106.481 266.583 93.6063Z" fill="#5B5A5E"/>
<path d="M237.479 138.487V48.7251H255.839V138.487H237.479Z" fill="#5B5A5E"/>
</svg>
